{
	"asset":{
		"generator":"Khronos glTF Blender I/O v4.0.44",
		"version":"2.0"
	},
	"extensionsUsed":[
		"KHR_materials_unlit"
	],
	"scene":0,
	"scenes":[
		{
			"name":"Scene",
			"nodes":[
				2
			]
		}
	],
	"nodes":[
		{
			"mesh":0,
			"name":"Cube.011_Line art_0"
		},
		{
			"mesh":1,
			"name":"Cube.011_TT_checker_3_0"
		},
		{
			"children":[
				0,
				1
			],
			"name":"Bench",
			"rotation":[
				-0.70710688829422,
				0,
				0,
				0.7071066498756409
			],
			"scale":[
				0.9433961510658264,
				0.3945906460285187,
				0.4501543939113617
			],
			"translation":[
				0,
				0.39546263217926025,
				1.3224098682403564
			]
		}
	],
	"materials":[
		{
			"extensions":{
				"KHR_materials_unlit":{}
			},
			"name":"Line_art.016",
			"pbrMetallicRoughness":{
				"baseColorFactor":[
					0.005118120927363634,
					0.006681978702545166,
					0.03421842306852341,
					1
				],
				"metallicFactor":0,
				"roughnessFactor":0.9
			}
		},
		{
			"doubleSided":true,
			"extensions":{
				"KHR_materials_unlit":{}
			},
			"name":"TT_checker_3.009",
			"pbrMetallicRoughness":{
				"baseColorTexture":{
					"index":0
				},
				"metallicFactor":0,
				"roughnessFactor":0.9
			}
		}
	],
	"meshes":[
		{
			"name":"Cube.011_Line art_0.002",
			"primitives":[
				{
					"attributes":{
						"POSITION":0,
						"NORMAL":1,
						"TEXCOORD_0":2
					},
					"indices":3,
					"material":0
				}
			]
		},
		{
			"name":"Cube.011_TT_checker_3_0.002",
			"primitives":[
				{
					"attributes":{
						"POSITION":4,
						"NORMAL":5,
						"TEXCOORD_0":6
					},
					"indices":7,
					"material":1
				}
			]
		}
	],
	"textures":[
		{
			"sampler":0,
			"source":0
		}
	],
	"images":[
		{
			"mimeType":"image/png",
			"name":"TT_checker_3_baseColor",
			"uri":"textures/TT_checker_3_baseColor.png"
		}
	],
	"accessors":[
		{
			"bufferView":0,
			"componentType":5126,
			"count":452,
			"max":[
				1.0609545707702637,
				1.0357401371002197,
				1.3551502227783203
			],
			"min":[
				-1.0609545707702637,
				-1.050919532775879,
				-0.8325107097625732
			],
			"type":"VEC3"
		},
		{
			"bufferView":1,
			"componentType":5126,
			"count":452,
			"type":"VEC3"
		},
		{
			"bufferView":2,
			"componentType":5126,
			"count":452,
			"type":"VEC2"
		},
		{
			"bufferView":3,
			"componentType":5123,
			"count":1140,
			"type":"SCALAR"
		},
		{
			"bufferView":4,
			"componentType":5126,
			"count":492,
			"max":[
				1.0330524444580078,
				1.0286611318588257,
				1.3268659114837646
			],
			"min":[
				-1.0330524444580078,
				-1.028731107711792,
				-0.8375126719474792
			],
			"type":"VEC3"
		},
		{
			"bufferView":5,
			"componentType":5126,
			"count":492,
			"type":"VEC3"
		},
		{
			"bufferView":6,
			"componentType":5126,
			"count":492,
			"type":"VEC2"
		},
		{
			"bufferView":7,
			"componentType":5123,
			"count":1236,
			"type":"SCALAR"
		}
	],
	"bufferViews":[
		{
			"buffer":0,
			"byteLength":5424,
			"byteOffset":0,
			"target":34962
		},
		{
			"buffer":0,
			"byteLength":5424,
			"byteOffset":5424,
			"target":34962
		},
		{
			"buffer":0,
			"byteLength":3616,
			"byteOffset":10848,
			"target":34962
		},
		{
			"buffer":0,
			"byteLength":2280,
			"byteOffset":14464,
			"target":34963
		},
		{
			"buffer":0,
			"byteLength":5904,
			"byteOffset":16744,
			"target":34962
		},
		{
			"buffer":0,
			"byteLength":5904,
			"byteOffset":22648,
			"target":34962
		},
		{
			"buffer":0,
			"byteLength":3936,
			"byteOffset":28552,
			"target":34962
		},
		{
			"buffer":0,
			"byteLength":2472,
			"byteOffset":32488,
			"target":34963
		}
	],
	"samplers":[
		{
			"magFilter":9729,
			"minFilter":9987
		}
	],
	"buffers":[
		{
			"byteLength":34960,
			"uri":"Bench.bin"
		}
	]
}
