{
	"asset":{
		"generator":"Khronos glTF Blender I/O v4.0.44",
		"version":"2.0"
	},
	"extensionsUsed":[
		"KHR_materials_unlit"
	],
	"scene":0,
	"scenes":[
		{
			"name":"Scene",
			"nodes":[
				2
			]
		}
	],
	"nodes":[
		{
			"mesh":0,
			"name":"Circle.008_Line art _Red_0"
		},
		{
			"mesh":1,
			"name":"Circle.008_TT_checker_2_0"
		},
		{
			"children":[
				0,
				1
			],
			"name":"Chair",
			"rotation":[
				-0.7071070075035095,
				0,
				0,
				0.7071065902709961
			],
			"scale":[
				0.2440684735774994,
				0.24406851828098297,
				0.24406851828098297
			],
			"translation":[
				0.34007030725479126,
				0.6893033981323242,
				6.623437881469727
			]
		}
	],
	"materials":[
		{
			"extensions":{
				"KHR_materials_unlit":{}
			},
			"name":"Line_art__Red.008",
			"pbrMetallicRoughness":{
				"baseColorFactor":[
					0.04011232778429985,
					0.0030307534616440535,
					0.0030307534616440535,
					1
				],
				"metallicFactor":0,
				"roughnessFactor":0.9
			}
		},
		{
			"doubleSided":true,
			"extensions":{
				"KHR_materials_unlit":{}
			},
			"name":"TT_checker_2.004",
			"pbrMetallicRoughness":{
				"baseColorTexture":{
					"index":0
				},
				"metallicFactor":0,
				"roughnessFactor":0.9
			}
		}
	],
	"meshes":[
		{
			"name":"Circle.008_Line art _Red_0.001",
			"primitives":[
				{
					"attributes":{
						"POSITION":0,
						"NORMAL":1,
						"TEXCOORD_0":2
					},
					"indices":3,
					"material":0
				}
			]
		},
		{
			"name":"Circle.008_TT_checker_2_0.001",
			"primitives":[
				{
					"attributes":{
						"POSITION":4,
						"NORMAL":5,
						"TEXCOORD_0":6
					},
					"indices":7,
					"material":1
				}
			]
		}
	],
	"textures":[
		{
			"sampler":0,
			"source":0
		}
	],
	"images":[
		{
			"mimeType":"image/png",
			"name":"TT_checker_2_baseColor",
			"uri":"textures/TT_checker_2_baseColor.png"
		}
	],
	"accessors":[
		{
			"bufferView":0,
			"componentType":5126,
			"count":178,
			"max":[
				1.238088607788086,
				1.2380880117416382,
				0.25977593660354614
			],
			"min":[
				-1.238088607788086,
				-1.2380880117416382,
				-2.2616682052612305
			],
			"type":"VEC3"
		},
		{
			"bufferView":1,
			"componentType":5126,
			"count":178,
			"type":"VEC3"
		},
		{
			"bufferView":2,
			"componentType":5126,
			"count":178,
			"type":"VEC2"
		},
		{
			"bufferView":3,
			"componentType":5123,
			"count":408,
			"type":"SCALAR"
		},
		{
			"bufferView":4,
			"componentType":5126,
			"count":218,
			"max":[
				1.1969757080078125,
				1.1969748735427856,
				0.2097759246826172
			],
			"min":[
				-1.1969757080078125,
				-1.1969748735427856,
				-2.2616682052612305
			],
			"type":"VEC3"
		},
		{
			"bufferView":5,
			"componentType":5126,
			"count":218,
			"type":"VEC3"
		},
		{
			"bufferView":6,
			"componentType":5126,
			"count":218,
			"type":"VEC2"
		},
		{
			"bufferView":7,
			"componentType":5123,
			"count":504,
			"type":"SCALAR"
		}
	],
	"bufferViews":[
		{
			"buffer":0,
			"byteLength":2136,
			"byteOffset":0,
			"target":34962
		},
		{
			"buffer":0,
			"byteLength":2136,
			"byteOffset":2136,
			"target":34962
		},
		{
			"buffer":0,
			"byteLength":1424,
			"byteOffset":4272,
			"target":34962
		},
		{
			"buffer":0,
			"byteLength":816,
			"byteOffset":5696,
			"target":34963
		},
		{
			"buffer":0,
			"byteLength":2616,
			"byteOffset":6512,
			"target":34962
		},
		{
			"buffer":0,
			"byteLength":2616,
			"byteOffset":9128,
			"target":34962
		},
		{
			"buffer":0,
			"byteLength":1744,
			"byteOffset":11744,
			"target":34962
		},
		{
			"buffer":0,
			"byteLength":1008,
			"byteOffset":13488,
			"target":34963
		}
	],
	"samplers":[
		{
			"magFilter":9729,
			"minFilter":9987
		}
	],
	"buffers":[
		{
			"byteLength":14496,
			"uri":"Chair.bin"
		}
	]
}
