{
	"asset":{
		"generator":"Khronos glTF Blender I/O v4.0.44",
		"version":"2.0"
	},
	"extensionsUsed":[
		"KHR_materials_unlit"
	],
	"scene":0,
	"scenes":[
		{
			"name":"Scene",
			"nodes":[
				2
			]
		}
	],
	"nodes":[
		{
			"mesh":0,
			"name":"Cube.026_Line art _Red_0"
		},
		{
			"mesh":1,
			"name":"Cube.026_TT_checker_2_0"
		},
		{
			"children":[
				0,
				1
			],
			"name":"ContainerFloating",
			"rotation":[
				-0.3560822010040283,
				0.5767883062362671,
				0.5117043256759644,
				0.5279009342193604
			],
			"scale":[
				0.7941420674324036,
				0.599026620388031,
				0.523897647857666
			],
			"translation":[
				-0.4789659082889557,
				0.5746147632598877,
				-2.6822166442871094
			]
		}
	],
	"materials":[
		{
			"extensions":{
				"KHR_materials_unlit":{}
			},
			"name":"Line_art__Red.019",
			"pbrMetallicRoughness":{
				"baseColorFactor":[
					0.04011232778429985,
					0.0030307534616440535,
					0.0030307534616440535,
					1
				],
				"metallicFactor":0,
				"roughnessFactor":0.9
			}
		},
		{
			"doubleSided":true,
			"extensions":{
				"KHR_materials_unlit":{}
			},
			"name":"TT_checker_2.013",
			"pbrMetallicRoughness":{
				"baseColorTexture":{
					"index":0
				},
				"metallicFactor":0,
				"roughnessFactor":0.9
			}
		}
	],
	"meshes":[
		{
			"name":"Cube.026_Line art _Red_0.002",
			"primitives":[
				{
					"attributes":{
						"POSITION":0,
						"NORMAL":1,
						"TEXCOORD_0":2
					},
					"indices":3,
					"material":0
				}
			]
		},
		{
			"name":"Cube.026_TT_checker_2_0.002",
			"primitives":[
				{
					"attributes":{
						"POSITION":4,
						"NORMAL":5,
						"TEXCOORD_0":6
					},
					"indices":7,
					"material":1
				}
			]
		}
	],
	"textures":[
		{
			"sampler":0,
			"source":0
		}
	],
	"images":[
		{
			"mimeType":"image/png",
			"name":"TT_checker_2_baseColor",
			"uri":"textures/TT_checker_2_baseColor.png"
		}
	],
	"accessors":[
		{
			"bufferView":0,
			"componentType":5126,
			"count":52,
			"max":[
				0.43485909700393677,
				0.43485891819000244,
				0.34282824397087097
			],
			"min":[
				-0.4348587691783905,
				-0.43485891819000244,
				-0.31569215655326843
			],
			"type":"VEC3"
		},
		{
			"bufferView":1,
			"componentType":5126,
			"count":52,
			"type":"VEC3"
		},
		{
			"bufferView":2,
			"componentType":5126,
			"count":52,
			"type":"VEC2"
		},
		{
			"bufferView":3,
			"componentType":5123,
			"count":78,
			"type":"SCALAR"
		},
		{
			"bufferView":4,
			"componentType":5126,
			"count":56,
			"max":[
				0.43485909700393677,
				0.43485891819000244,
				0.3156922161579132
			],
			"min":[
				-0.4348587691783905,
				-0.43485891819000244,
				-0.31569215655326843
			],
			"type":"VEC3"
		},
		{
			"bufferView":5,
			"componentType":5126,
			"count":56,
			"type":"VEC3"
		},
		{
			"bufferView":6,
			"componentType":5126,
			"count":56,
			"type":"VEC2"
		},
		{
			"bufferView":7,
			"componentType":5123,
			"count":102,
			"type":"SCALAR"
		}
	],
	"bufferViews":[
		{
			"buffer":0,
			"byteLength":624,
			"byteOffset":0,
			"target":34962
		},
		{
			"buffer":0,
			"byteLength":624,
			"byteOffset":624,
			"target":34962
		},
		{
			"buffer":0,
			"byteLength":416,
			"byteOffset":1248,
			"target":34962
		},
		{
			"buffer":0,
			"byteLength":156,
			"byteOffset":1664,
			"target":34963
		},
		{
			"buffer":0,
			"byteLength":672,
			"byteOffset":1820,
			"target":34962
		},
		{
			"buffer":0,
			"byteLength":672,
			"byteOffset":2492,
			"target":34962
		},
		{
			"buffer":0,
			"byteLength":448,
			"byteOffset":3164,
			"target":34962
		},
		{
			"buffer":0,
			"byteLength":204,
			"byteOffset":3612,
			"target":34963
		}
	],
	"samplers":[
		{
			"magFilter":9729,
			"minFilter":9987
		}
	],
	"buffers":[
		{
			"byteLength":3816,
			"uri":"ContainerFloating.bin"
		}
	]
}
