{
	"asset":{
		"generator":"Khronos glTF Blender I/O v4.0.44",
		"version":"2.0"
	},
	"extensionsUsed":[
		"KHR_materials_unlit"
	],
	"scene":0,
	"scenes":[
		{
			"name":"Scene",
			"nodes":[
				2
			]
		}
	],
	"nodes":[
		{
			"mesh":0,
			"name":"Cube.005_Line art_0"
		},
		{
			"mesh":1,
			"name":"Cube.005_TT_checker_1_0"
		},
		{
			"children":[
				0,
				1
			],
			"name":"Door",
			"rotation":[
				-0.70710688829422,
				0,
				0,
				0.7071066498756409
			],
			"scale":[
				0.9433961510658264,
				0.943396270275116,
				0.943396270275116
			],
			"translation":[
				5.45558500289917,
				0.9433964490890503,
				1.519083857536316
			]
		}
	],
	"materials":[
		{
			"extensions":{
				"KHR_materials_unlit":{}
			},
			"name":"Line_art.018",
			"pbrMetallicRoughness":{
				"baseColorFactor":[
					0.005118120927363634,
					0.006681978702545166,
					0.03421842306852341,
					1
				],
				"metallicFactor":0,
				"roughnessFactor":0.9
			}
		},
		{
			"doubleSided":true,
			"extensions":{
				"KHR_materials_unlit":{}
			},
			"name":"TT_checker_1.012",
			"pbrMetallicRoughness":{
				"baseColorTexture":{
					"index":0
				},
				"metallicFactor":0,
				"roughnessFactor":0.9
			}
		}
	],
	"meshes":[
		{
			"name":"Cube.005_Line art_0.002",
			"primitives":[
				{
					"attributes":{
						"POSITION":0,
						"NORMAL":1,
						"TEXCOORD_0":2
					},
					"indices":3,
					"material":0
				}
			]
		},
		{
			"name":"Cube.005_TT_checker_1_0.002",
			"primitives":[
				{
					"attributes":{
						"POSITION":4,
						"NORMAL":5,
						"TEXCOORD_0":6
					},
					"indices":7,
					"material":1
				}
			]
		}
	],
	"textures":[
		{
			"sampler":0,
			"source":0
		}
	],
	"images":[
		{
			"mimeType":"image/png",
			"name":"TT_checker_1_baseColor",
			"uri":"textures/TT_checker_1_baseColor.png"
		}
	],
	"accessors":[
		{
			"bufferView":0,
			"componentType":5126,
			"count":2532,
			"max":[
				0.8057234287261963,
				1.616755485534668,
				2.8055052757263184
			],
			"min":[
				-0.8057234287261963,
				-1.616755485534668,
				-0.9972484111785889
			],
			"type":"VEC3"
		},
		{
			"bufferView":1,
			"componentType":5126,
			"count":2532,
			"type":"VEC3"
		},
		{
			"bufferView":2,
			"componentType":5126,
			"count":2532,
			"type":"VEC2"
		},
		{
			"bufferView":3,
			"componentType":5123,
			"count":3852,
			"type":"SCALAR"
		},
		{
			"bufferView":4,
			"componentType":5126,
			"count":2220,
			"max":[
				0.7687824368476868,
				1.5773056745529175,
				2.765505313873291
			],
			"min":[
				-0.7687824368476868,
				-1.5773056745529175,
				-0.9981003999710083
			],
			"type":"VEC3"
		},
		{
			"bufferView":5,
			"componentType":5126,
			"count":2220,
			"type":"VEC3"
		},
		{
			"bufferView":6,
			"componentType":5126,
			"count":2220,
			"type":"VEC2"
		},
		{
			"bufferView":7,
			"componentType":5123,
			"count":2988,
			"type":"SCALAR"
		}
	],
	"bufferViews":[
		{
			"buffer":0,
			"byteLength":30384,
			"byteOffset":0,
			"target":34962
		},
		{
			"buffer":0,
			"byteLength":30384,
			"byteOffset":30384,
			"target":34962
		},
		{
			"buffer":0,
			"byteLength":20256,
			"byteOffset":60768,
			"target":34962
		},
		{
			"buffer":0,
			"byteLength":7704,
			"byteOffset":81024,
			"target":34963
		},
		{
			"buffer":0,
			"byteLength":26640,
			"byteOffset":88728,
			"target":34962
		},
		{
			"buffer":0,
			"byteLength":26640,
			"byteOffset":115368,
			"target":34962
		},
		{
			"buffer":0,
			"byteLength":17760,
			"byteOffset":142008,
			"target":34962
		},
		{
			"buffer":0,
			"byteLength":5976,
			"byteOffset":159768,
			"target":34963
		}
	],
	"samplers":[
		{
			"magFilter":9729,
			"minFilter":9987
		}
	],
	"buffers":[
		{
			"byteLength":165744,
			"uri":"Door.bin"
		}
	]
}
