{
	"asset":{
		"generator":"Khronos glTF Blender I/O v4.0.44",
		"version":"2.0"
	},
	"extensionsUsed":[
		"KHR_materials_unlit"
	],
	"scene":0,
	"scenes":[
		{
			"name":"Scene",
			"nodes":[
				2
			]
		}
	],
	"nodes":[
		{
			"mesh":0,
			"name":"Plane_Line art Green _0.001"
		},
		{
			"mesh":1,
			"name":"Plane_TT_checker_2_0.001"
		},
		{
			"children":[
				0,
				1
			],
			"name":"Earth",
			"rotation":[
				-0.70710688829422,
				0,
				0,
				0.7071066498756409
			],
			"scale":[
				0.9433961510658264,
				0.943396270275116,
				0.943396270275116
			],
			"translation":[
				0,
				-0.008940483443439007,
				0
			]
		}
	],
	"materials":[
		{
			"extensions":{
				"KHR_materials_unlit":{}
			},
			"name":"Line_art_Green.002",
			"pbrMetallicRoughness":{
				"baseColorFactor":[
					0.001794205978512764,
					0.00607293052598834,
					0.004709916189312935,
					1
				],
				"metallicFactor":0,
				"roughnessFactor":0.9
			}
		},
		{
			"doubleSided":true,
			"extensions":{
				"KHR_materials_unlit":{}
			},
			"name":"TT_checker_2.002",
			"pbrMetallicRoughness":{
				"baseColorTexture":{
					"index":0
				},
				"metallicFactor":0,
				"roughnessFactor":0.9
			}
		}
	],
	"meshes":[
		{
			"name":"Plane_Line art Green _0.002",
			"primitives":[
				{
					"attributes":{
						"POSITION":0,
						"NORMAL":1,
						"TEXCOORD_0":2
					},
					"indices":3,
					"material":0
				}
			]
		},
		{
			"name":"Plane_TT_checker_2_0.002",
			"primitives":[
				{
					"attributes":{
						"POSITION":4,
						"NORMAL":5,
						"TEXCOORD_0":6
					},
					"indices":7,
					"material":1
				}
			]
		}
	],
	"textures":[
		{
			"sampler":0,
			"source":0
		}
	],
	"images":[
		{
			"mimeType":"image/png",
			"name":"TT_checker_2_baseColor",
			"uri":"textures/TT_checker_2_baseColor.png"
		}
	],
	"accessors":[
		{
			"bufferView":0,
			"componentType":5126,
			"count":268,
			"max":[
				11.403142929077148,
				12.547462463378906,
				0.23314401507377625
			],
			"min":[
				-9.856626510620117,
				-12.82728099822998,
				-3.651378870010376
			],
			"type":"VEC3"
		},
		{
			"bufferView":1,
			"componentType":5126,
			"count":268,
			"type":"VEC3"
		},
		{
			"bufferView":2,
			"componentType":5126,
			"count":268,
			"type":"VEC2"
		},
		{
			"bufferView":3,
			"componentType":5123,
			"count":924,
			"type":"SCALAR"
		},
		{
			"bufferView":4,
			"componentType":5126,
			"count":263,
			"max":[
				11.307689666748047,
				12.454936981201172,
				0.1331494152545929
			],
			"min":[
				-9.760038375854492,
				-12.732419967651367,
				-3.5522384643554688
			],
			"type":"VEC3"
		},
		{
			"bufferView":5,
			"componentType":5126,
			"count":263,
			"type":"VEC3"
		},
		{
			"bufferView":6,
			"componentType":5126,
			"count":263,
			"type":"VEC2"
		},
		{
			"bufferView":7,
			"componentType":5123,
			"count":924,
			"type":"SCALAR"
		}
	],
	"bufferViews":[
		{
			"buffer":0,
			"byteLength":3216,
			"byteOffset":0,
			"target":34962
		},
		{
			"buffer":0,
			"byteLength":3216,
			"byteOffset":3216,
			"target":34962
		},
		{
			"buffer":0,
			"byteLength":2144,
			"byteOffset":6432,
			"target":34962
		},
		{
			"buffer":0,
			"byteLength":1848,
			"byteOffset":8576,
			"target":34963
		},
		{
			"buffer":0,
			"byteLength":3156,
			"byteOffset":10424,
			"target":34962
		},
		{
			"buffer":0,
			"byteLength":3156,
			"byteOffset":13580,
			"target":34962
		},
		{
			"buffer":0,
			"byteLength":2104,
			"byteOffset":16736,
			"target":34962
		},
		{
			"buffer":0,
			"byteLength":1848,
			"byteOffset":18840,
			"target":34963
		}
	],
	"samplers":[
		{
			"magFilter":9729,
			"minFilter":9987
		}
	],
	"buffers":[
		{
			"byteLength":20688,
			"uri":"Earth.bin"
		}
	]
}
