{
	"asset":{
		"generator":"Khronos glTF Blender I/O v4.0.44",
		"version":"2.0"
	},
	"extensionsUsed":[
		"KHR_materials_unlit"
	],
	"scene":0,
	"scenes":[
		{
			"name":"Scene",
			"nodes":[
				2
			]
		}
	],
	"nodes":[
		{
			"mesh":0,
			"name":"Circle.032_Line art Green _0"
		},
		{
			"mesh":1,
			"name":"Circle.032_TT_checker_4_0"
		},
		{
			"children":[
				0,
				1
			],
			"name":"Lily00",
			"rotation":[
				-0.6336866021156311,
				-0.313753604888916,
				-0.31375351548194885,
				0.6336867213249207
			],
			"scale":[
				0.6893619894981384,
				0.6893620491027832,
				0.6893620491027832
			],
			"translation":[
				-0.40921103954315186,
				0.488064706325531,
				-4.596839904785156
			]
		}
	],
	"materials":[
		{
			"extensions":{
				"KHR_materials_unlit":{}
			},
			"name":"Line_art_Green.005",
			"pbrMetallicRoughness":{
				"baseColorFactor":[
					0.001794205978512764,
					0.00607293052598834,
					0.004709916189312935,
					1
				],
				"metallicFactor":0,
				"roughnessFactor":0.9
			}
		},
		{
			"doubleSided":true,
			"extensions":{
				"KHR_materials_unlit":{}
			},
			"name":"TT_checker_4.007",
			"pbrMetallicRoughness":{
				"baseColorTexture":{
					"index":0
				},
				"metallicFactor":0,
				"roughnessFactor":0.9
			}
		}
	],
	"meshes":[
		{
			"name":"Circle.032_Line art Green _0.002",
			"primitives":[
				{
					"attributes":{
						"POSITION":0,
						"NORMAL":1,
						"TEXCOORD_0":2
					},
					"indices":3,
					"material":0
				}
			]
		},
		{
			"name":"Circle.032_TT_checker_4_0.002",
			"primitives":[
				{
					"attributes":{
						"POSITION":4,
						"NORMAL":5,
						"TEXCOORD_0":6
					},
					"indices":7,
					"material":1
				}
			]
		}
	],
	"textures":[
		{
			"sampler":0,
			"source":0
		}
	],
	"images":[
		{
			"mimeType":"image/png",
			"name":"TT_checker_4_baseColor",
			"uri":"textures/TT_checker_4_baseColor.png"
		}
	],
	"accessors":[
		{
			"bufferView":0,
			"componentType":5126,
			"count":76,
			"max":[
				1.0237714052200317,
				1.0237714052200317,
				0.29346707463264465
			],
			"min":[
				-1.0237714052200317,
				-1.0237714052200317,
				-0.04326927289366722
			],
			"type":"VEC3"
		},
		{
			"bufferView":1,
			"componentType":5126,
			"count":76,
			"type":"VEC3"
		},
		{
			"bufferView":2,
			"componentType":5126,
			"count":76,
			"type":"VEC2"
		},
		{
			"bufferView":3,
			"componentType":5123,
			"count":180,
			"type":"SCALAR"
		},
		{
			"bufferView":4,
			"componentType":5126,
			"count":76,
			"max":[
				1,
				1,
				0.2675684094429016
			],
			"min":[
				-1,
				-1,
				-0.024361401796340942
			],
			"type":"VEC3"
		},
		{
			"bufferView":5,
			"componentType":5126,
			"count":76,
			"type":"VEC3"
		},
		{
			"bufferView":6,
			"componentType":5126,
			"count":76,
			"type":"VEC2"
		},
		{
			"bufferView":7,
			"componentType":5123,
			"count":180,
			"type":"SCALAR"
		}
	],
	"bufferViews":[
		{
			"buffer":0,
			"byteLength":912,
			"byteOffset":0,
			"target":34962
		},
		{
			"buffer":0,
			"byteLength":912,
			"byteOffset":912,
			"target":34962
		},
		{
			"buffer":0,
			"byteLength":608,
			"byteOffset":1824,
			"target":34962
		},
		{
			"buffer":0,
			"byteLength":360,
			"byteOffset":2432,
			"target":34963
		},
		{
			"buffer":0,
			"byteLength":912,
			"byteOffset":2792,
			"target":34962
		},
		{
			"buffer":0,
			"byteLength":912,
			"byteOffset":3704,
			"target":34962
		},
		{
			"buffer":0,
			"byteLength":608,
			"byteOffset":4616,
			"target":34962
		},
		{
			"buffer":0,
			"byteLength":360,
			"byteOffset":5224,
			"target":34963
		}
	],
	"samplers":[
		{
			"magFilter":9729,
			"minFilter":9987
		}
	],
	"buffers":[
		{
			"byteLength":5584,
			"uri":"Lily00.bin"
		}
	]
}
