{
	"asset":{
		"generator":"Khronos glTF Blender I/O v4.0.44",
		"version":"2.0"
	},
	"scene":0,
	"scenes":[
		{
			"name":"Scene",
			"nodes":[
				0
			]
		}
	],
	"nodes":[
		{
			"mesh":0,
			"name":"Sign",
			"rotation":[
				-0.6148762702941895,
				0.28810036182403564,
				0.18823780119419098,
				0.7095715999603271
			],
			"scale":[
				0.4000000059604645,
				0.4000000059604645,
				0.4000000059604645
			],
			"translation":[
				9.135099411010742,
				1.059999942779541,
				6.267600059509277
			]
		}
	],
	"materials":[
		{
			"doubleSided":true,
			"name":"material_0",
			"pbrMetallicRoughness":{
				"metallicFactor":0.6236661672592163,
				"roughnessFactor":0.6053735017776489
			}
		}
	],
	"meshes":[
		{
			"name":"Object_0",
			"primitives":[
				{
					"attributes":{
						"COLOR_0":0,
						"POSITION":1,
						"NORMAL":2
					},
					"indices":3,
					"material":0
				}
			]
		}
	],
	"accessors":[
		{
			"bufferView":0,
			"componentType":5123,
			"count":212,
			"normalized":true,
			"type":"VEC4"
		},
		{
			"bufferView":1,
			"componentType":5126,
			"count":212,
			"max":[
				1.6749000549316406,
				0.26760005950927734,
				1.127885341644287
			],
			"min":[
				-1.6749000549316406,
				-0.2675999402999878,
				-3.008314609527588
			],
			"type":"VEC3"
		},
		{
			"bufferView":2,
			"componentType":5126,
			"count":212,
			"type":"VEC3"
		},
		{
			"bufferView":3,
			"componentType":5123,
			"count":564,
			"type":"SCALAR"
		}
	],
	"bufferViews":[
		{
			"buffer":0,
			"byteLength":1696,
			"byteOffset":0,
			"target":34962
		},
		{
			"buffer":0,
			"byteLength":2544,
			"byteOffset":1696,
			"target":34962
		},
		{
			"buffer":0,
			"byteLength":2544,
			"byteOffset":4240,
			"target":34962
		},
		{
			"buffer":0,
			"byteLength":1128,
			"byteOffset":6784,
			"target":34963
		}
	],
	"buffers":[
		{
			"byteLength":7912,
			"uri":"Sign.bin"
		}
	]
}
